<svg width="194" height="71" viewBox="0 0 194 71" fill="none" xmlns="http://www.w3.org/2000/svg">
<g filter="url(#filter0_d_1022_343)">
<path d="M89 37.4416V41H86.8428V39.3033H80V31H82.3196V37.4416H85.5253V31H87.8448V37.4416H89Z" fill="white"/>
<path d="M97 38.0334V40H90V31H96.8388V32.9679H92.4364V34.4842H96.3151V36.387H92.4364V38.0334H97Z" fill="white"/>
<path d="M106 31V40H103.621V36.4896H100.378V40H98V31H100.378V34.3778H103.621V31H106Z" fill="white"/>
<path d="M115.995 33.0192H113.251V40H110.756V33.0192H108V31H116L115.995 33.0192Z" fill="white"/>
<path d="M122.148 31.4068C122.706 31.6481 123.182 32.0504 123.516 32.5638C123.845 33.092 124.012 33.7068 123.998 34.3312C124.02 34.9501 123.854 35.5608 123.524 36.0814C123.193 36.6019 122.713 37.0073 122.149 37.2432C121.487 37.5269 120.772 37.6646 120.053 37.6472H118.509V40H116V31.0015H120.053C120.772 30.9839 121.486 31.1221 122.148 31.4068ZM121.072 35.3019C121.333 35.0742 121.464 34.7515 121.464 34.3312C121.474 34.149 121.444 33.9668 121.376 33.7978C121.308 33.6288 121.204 33.4773 121.072 33.3543C120.809 33.1225 120.421 33.0066 119.905 33.0066H118.512V35.6421H119.905C120.421 35.6421 120.809 35.5287 121.072 35.3019Z" fill="white"/>
<path d="M85.7974 52.2485H82.1595L81.4827 54H79L82.7981 45H85.1899L89 54H86.4731L85.7974 52.2485ZM85.0799 50.372L83.9737 47.4946L82.8675 50.372H85.0799Z" fill="white"/>
<path d="M97.5905 50.0917C97.8708 50.4772 98.0147 50.9488 97.9987 51.4291C98.0113 51.7956 97.9347 52.1596 97.7758 52.4882C97.6169 52.8169 97.3806 53.1 97.0883 53.3119C96.4806 53.7715 95.6204 54.0008 94.5076 54H90V45H94.2694C95.3235 45 96.1418 45.2035 96.7242 45.6105C97.0032 45.7972 97.2302 46.0547 97.3831 46.3579C97.536 46.6611 97.6096 46.9997 97.5967 47.3407C97.6043 47.7481 97.4979 48.1492 97.29 48.4967C97.073 48.842 96.7662 49.1184 96.4041 49.2948C96.8701 49.4295 97.2843 49.7078 97.5905 50.0917ZM92.4487 48.6005H94.0372C94.7402 48.6005 95.0917 48.3048 95.0917 47.7135C95.0917 47.1222 94.7402 46.8261 94.0372 46.8253H92.4487V48.6005ZM95.4876 51.2352C95.4876 50.6272 95.1276 50.3232 94.4075 50.3232H92.4524V52.1747H94.4075C95.1268 52.1747 95.4868 51.8615 95.4876 51.2352Z" fill="white"/>
<path d="M105.996 47.0192H103.252V54H100.757V47.0192H98V45H106L105.996 47.0192Z" fill="white"/>
<path d="M108.451 53.419C107.712 53.0443 107.092 52.4811 106.66 51.7903C106.228 51.0994 106 50.3074 106 49.5C106 48.6926 106.228 47.9006 106.66 47.2097C107.092 46.5189 107.712 45.9557 108.451 45.581C109.243 45.1989 110.115 45 111 45C111.885 45 112.757 45.1989 113.549 45.581C114.288 45.9557 114.908 46.5189 115.34 47.2097C115.772 47.9006 116 48.6926 116 49.5C116 50.3074 115.772 51.0994 115.34 51.7903C114.908 52.4811 114.288 53.0443 113.549 53.419C112.757 53.8011 111.885 54 111 54C110.115 54 109.243 53.8011 108.451 53.419ZM112.226 51.664C112.594 51.4569 112.895 51.155 113.096 50.7919C113.306 50.3916 113.416 49.949 113.416 49.5C113.416 49.0511 113.306 48.6084 113.096 48.2081C112.896 47.8451 112.594 47.5435 112.226 47.3372C111.851 47.1345 111.429 47.0281 110.999 47.0281C110.57 47.0281 110.148 47.1345 109.773 47.3372C109.405 47.5442 109.104 47.8456 108.902 48.2081C108.693 48.6087 108.584 49.0512 108.584 49.5C108.584 49.9488 108.693 50.3913 108.902 50.7919C109.104 51.1545 109.405 51.4562 109.773 51.664C110.148 51.8659 110.57 51.9719 110.999 51.9719C111.429 51.9719 111.851 51.8659 112.226 51.664Z" fill="white"/>
<path d="M125 45V54H122.611V47.0192H119.371V54H117V45H125Z" fill="white"/>
<path d="M128.45 53.4193C127.711 53.0443 127.092 52.4809 126.66 51.79C126.228 51.0992 126 50.3073 126 49.5C126 48.6927 126.228 47.9008 126.66 47.21C127.092 46.5191 127.711 45.9557 128.45 45.5807C129.242 45.1988 130.115 45 131 45C131.885 45 132.758 45.1988 133.55 45.5807C134.289 45.9557 134.908 46.5191 135.34 47.21C135.772 47.9008 136 48.6927 136 49.5C136 50.3073 135.772 51.0992 135.34 51.79C134.908 52.4809 134.289 53.0443 133.55 53.4193C132.758 53.8012 131.885 54 131 54C130.115 54 129.242 53.8012 128.45 53.4193ZM132.228 51.6641C132.596 51.457 132.897 51.1551 133.098 50.792C133.308 50.3916 133.418 49.949 133.418 49.5C133.418 49.051 133.308 48.6084 133.098 48.208C132.897 47.845 132.596 47.5434 132.228 47.3371C131.853 47.1344 131.43 47.0279 131.001 47.0279C130.571 47.0279 130.149 47.1344 129.774 47.3371C129.405 47.5434 129.104 47.845 128.903 48.208C128.693 48.6084 128.583 49.051 128.583 49.5C128.583 49.949 128.693 50.3916 128.903 50.792C129.104 51.1551 129.405 51.457 129.774 51.6641C130.149 51.8661 130.571 51.9721 131.001 51.9721C131.43 51.9721 131.852 51.8661 132.228 51.6641Z" fill="white"/>
<path d="M140.434 50.5546H139.358V54H137V45H139.357V48.4967H140.491L142.489 45H144.977L142.357 49.3461L145 54H142.334L140.434 50.5546Z" fill="white"/>
<path d="M152.113 45.4068C152.673 45.6511 153.15 46.0578 153.486 46.5766C153.821 47.0954 154 47.7034 154 48.325C154 48.9467 153.821 49.5546 153.486 50.0734C153.15 50.5922 152.673 50.9989 152.113 51.2432C151.454 51.5272 150.744 51.6649 150.03 51.6472H148.493V54H146V45.0016H150.03C150.745 44.9836 151.455 45.1218 152.113 45.4068ZM151.043 49.3019C151.303 49.0742 151.433 48.7515 151.433 48.3313C151.443 48.1491 151.413 47.9669 151.346 47.7979C151.279 47.6289 151.175 47.4774 151.043 47.3544C150.782 47.1225 150.395 47.0066 149.884 47.0066H148.5V49.6421H149.885C150.397 49.6421 150.783 49.5287 151.043 49.3019Z" fill="white"/>
<path d="M160.793 52.2485H157.16L156.483 54H154L157.798 45H160.19L164 54H161.465L160.793 52.2485ZM160.075 50.372L158.97 47.4946L157.864 50.372H160.075Z" fill="white"/>
<path d="M166.188 53.4244C165.524 53.0584 164.968 52.5042 164.583 51.8236C164.201 51.1162 164 50.3152 164 49.5C164 48.6848 164.201 47.8838 164.583 47.1763C164.968 46.4959 165.523 45.9418 166.187 45.5755C166.898 45.1847 167.689 44.9872 168.49 45.0006C169.183 44.9895 169.87 45.133 170.507 45.4216C171.091 45.6894 171.603 46.1053 172 46.6327L170.53 48.0411C170.001 47.3668 169.358 47.0292 168.601 47.0284C168.188 47.0202 167.78 47.1268 167.418 47.3375C167.076 47.5389 166.796 47.8414 166.613 48.2083C166.425 48.6097 166.327 49.0518 166.327 49.5C166.327 49.9482 166.425 50.3903 166.613 50.7917C166.796 51.1586 167.076 51.4614 167.418 51.6637C167.781 51.8733 168.188 51.9794 168.601 51.9716C169.358 51.9716 170.001 51.634 170.53 50.9589L172 52.3672C171.604 52.895 171.091 53.311 170.507 53.5784C169.87 53.867 169.183 54.0104 168.49 53.9993C167.69 54.0132 166.898 53.8156 166.188 53.4244Z" fill="white"/>
<path d="M176.433 50.5546H175.356V54H173V45H175.356V48.4967H176.492L178.489 45H180.977L178.357 49.3461L181 54H178.334L176.433 50.5546Z" fill="white"/>
<path d="M182 45H184.325V50.2844L187.777 45H190V54H187.675V48.7281L184.234 54H182V45Z" fill="white"/>
<path d="M35.981 16.1616C34.605 16.6408 33.2725 17.2561 32 18C34.3118 16.2974 36.8653 15.0192 39.5585 14.2165C40.6545 13.8943 41.7694 13.653 42.8954 13.4944C46.067 13.2056 49.4805 13.0247 53.1011 13H53.2041C53.605 13.131 53.9781 13.3467 54.302 13.6349C54.5798 13.883 54.816 14.1814 55 14.517C46.6728 14.6133 41.018 14.975 39.9392 15.1832C38.8964 15.3836 37.9039 15.6295 37.1783 15.8259C36.4527 16.0224 35.981 16.1616 35.981 16.1616Z" fill="white"/>
<path d="M76.9999 22.8435C77.0143 21.6611 75.5443 20.8654 74.8963 20.5118C73.3844 19.6841 71.84 19.6841 70.9064 19.7811C70.313 18.3101 69.4462 16.9611 68.3505 15.8035C67.5932 15.0047 66.7327 14.3074 65.791 13.7295C65.4502 13.6113 65.1274 13.5143 64.7866 13.4056C62.4419 13.2117 59.964 13.0698 57.3636 13C57.0482 13.1383 56.763 13.3354 56.5236 13.5806C56.3146 13.8001 56.1388 14.0482 56.0017 14.3172C58.5504 14.2995 61.3283 14.3066 64.2814 14.3432C65.2868 16.8444 65.7865 19.515 65.7526 22.205H25.7097C23.1096 22.7441 20.5578 23.4887 18.0791 24.4315C16.0523 25.2024 13.8528 26.0561 11.2669 27.7529C10.2009 28.4521 9.18234 29.2192 8.21775 30.0491C8.23774 30.6214 8.32226 31.1897 8.46974 31.7435C8.6198 32.3077 8.83647 32.8525 9.11532 33.367C8.73195 33.7906 8.39527 34.2532 8.11095 34.7468C7.80766 35.2698 7.5661 35.8252 7.39097 36.4022C7.10573 36.087 6.87542 35.7274 6.70939 35.338C6.5563 34.9788 6.45882 34.599 6.4202 34.2112C6.1802 34.9739 5.94021 35.7401 5.70022 36.5063C4.99007 37.1032 4.46692 37.8869 4.19186 38.7658C4.01849 39.3543 3.96185 39.9701 4.02506 40.5796C4.24345 40.8059 4.46185 41.0333 4.68024 41.2619C4.71384 41.8093 4.74744 42.3615 4.77744 42.909C4.92144 44.1351 5.06543 45.3578 5.20703 46.5839C5.03303 46.7081 4.85904 46.8358 4.68024 46.9599C4.80984 47.5405 4.93583 48.121 5.06543 48.7016C5.15636 49.0827 5.3368 49.4375 5.59222 49.7374C5.80294 49.9896 6.06234 50.1982 6.3554 50.3511C6.68008 49.6905 7.06442 49.0601 7.50377 48.4675C8.17468 47.5545 8.96785 46.7352 9.8617 46.0317C10.0402 45.8906 10.2455 45.786 10.4656 45.7241C10.6856 45.6622 10.916 45.6441 11.1433 45.6711C20.5718 46.7904 29.9996 47.9098 39.4265 49.0291C40.997 49.4702 42.493 50.1367 43.8664 51.0073C47.8443 53.5258 49.6934 57.0801 50.4374 58.8005C52.7956 59.0665 55.177 59.0665 57.5352 58.8005C61.7201 58.3191 65.766 57.0225 69.4377 54.9861V42.3343C69.3228 40.1881 69.4996 38.0364 69.9633 35.9363C70.4265 33.8659 70.9521 32.881 71.1116 32.5925C71.5628 31.7754 72.4244 30.5824 74.2196 29.154L75.8419 27.8794C75.5455 27.2445 75.2011 26.5622 74.7931 25.8539C74.3936 25.1646 73.9892 24.5367 73.5932 23.9704H76.5163C76.8036 23.6603 76.9742 23.2626 76.9999 22.8435ZM42.7288 45.0728C38.8205 46.0483 27.932 45.0385 27.3092 44.9806H27.2912C23.2761 44.5809 20.0362 44.1174 17.3963 43.6858C12.7788 42.9315 11.6665 42.5472 10.5133 41.7431C9.05892 40.7286 8.63173 39.8052 8.45894 39.2825C7.85896 37.4628 8.81173 35.7743 8.93893 35.5615C9.37655 34.8195 10.0027 34.2026 10.7557 33.7713C10.4651 32.9228 10.399 32.0153 10.5637 31.1346C10.9441 29.1529 12.3936 28.0603 12.7632 27.7907C12.4632 28.0757 10.8181 29.6944 11.0425 31.8878C11.0956 32.396 11.2411 32.8906 11.4721 33.348C19.671 33.676 27.9872 34.13 36.4206 34.7102C38.1629 34.8308 39.8993 34.9565 41.6296 35.0874L53.0053 29.5301C49.5174 31.5252 46.0283 33.5191 42.538 35.5119C43.2473 35.8257 43.9072 36.2383 44.4976 36.7368C45.6975 37.749 46.2507 38.819 46.6959 39.7035C47.2395 40.7807 47.5455 41.4109 47.3175 42.1061C47.1543 42.6027 46.7871 42.9173 46.2663 43.2885C45.5007 43.8194 44.2564 44.6909 42.7288 45.0728ZM58.5864 56.7881C57.0579 57.0327 55.5099 57.1392 53.9617 57.1061C52.4882 53.2225 49.8518 49.8717 46.4019 47.4979C48.9651 47.22 51.125 47.103 52.7233 47.051C60.0971 46.8145 61.6463 47.7462 62.4263 48.3693C63.9418 49.5801 64.7674 51.401 64.8646 51.6198C65.2842 52.5637 65.5385 53.5707 65.617 54.5983C63.3931 55.6588 61.025 56.396 58.5864 56.7869V56.7881ZM67.7277 33.7926C67.7095 33.8594 67.6779 33.9219 67.6348 33.9765C67.5918 34.0312 67.5381 34.0768 67.4769 34.1107C60.8939 38.3768 57.3672 39.4091 57.3672 39.4091C55.6525 39.9116 53.4073 40.4945 50.735 40.9994L47.1507 35.915L46.0395 35.6325L47.5803 35.4551L65.0026 31.4988L66.9802 29.5833L65.7562 31.4952C66.6754 32.3986 67.3438 33.1021 67.5837 33.4036C67.6335 33.4551 67.6719 33.5161 67.6967 33.5828C67.7214 33.6495 67.732 33.7205 67.7277 33.7914V33.7926Z" fill="white"/>
<path d="M47 58.9992C38.0716 59.0346 29.1784 57.902 20.5558 55.6314C15.9294 54.4092 11.399 52.8614 7 51C11.5538 52.3903 16.4227 53.7008 21.6068 54.8822C29.9736 56.7804 38.4551 58.1555 47 58.9992Z" fill="white"/>
<path d="M43 52.9366C35.4946 53.2177 27.9831 52.5635 20.646 50.9896C17.0368 50.213 13.4811 49.2145 10 48C14.1251 49.0125 18.552 49.9458 23.271 50.7348C29.8005 51.8276 36.387 52.5626 43 52.9366Z" fill="white"/>
<path d="M70 53L70.2179 38.2894C70.4309 36.3599 71.07 33.6405 73.0176 31.1289C73.3225 30.7346 73.6505 30.3577 74 30C72.9549 31.5859 72.2154 33.3428 71.8174 35.185C71.6117 36.1487 71.502 37.1293 71.49 38.1134C71.369 41.8401 71.2473 45.5675 71.1248 49.2958C70.7498 50.5285 70.3749 51.7633 70 53Z" fill="white"/>
<path d="M33 12.2396C31.0963 12.487 30.0397 13.1926 29.421 13.8581C28.0134 15.373 27.6053 18.0234 27.5292 17.9998C27.5184 17.9998 27.5292 17.9492 27.5292 17.9492C27.5827 17.5781 27.3138 15.3718 25.5862 13.8581C24.1774 12.6236 22.5354 12.494 22 12.474C23.468 12.2605 24.8209 11.5643 25.8408 10.4974C26.7494 9.52847 27.3383 8.30853 27.5292 7C27.663 8.33106 28.2504 9.57738 29.1949 10.5339C30.2147 11.5372 31.5657 12.1428 33 12.2396Z" fill="white"/>
<path d="M24 16.4293C23.6738 16.4596 23.2906 16.5568 23.0162 16.8412C22.5823 17.2929 22.5063 18.1168 22.5084 17.9861C22.5087 17.7644 22.4607 17.5453 22.3678 17.3436C22.2749 17.1419 22.1393 16.9623 21.9701 16.8172C21.6952 16.5997 21.3517 16.485 21 16.4931C21.3808 16.4396 21.7337 16.2651 22.0057 15.9958C22.2778 15.7266 22.4542 15.3771 22.5084 15C22.5446 15.3751 22.7147 15.7251 22.9881 15.9871C23.2615 16.2491 23.6203 16.4059 24 16.4293Z" fill="white"/>
<path d="M58 11.0345C57.6507 11.0567 57.3082 11.1285 56.987 11.2468C56.7515 11.3349 56.5385 11.4611 56.3601 11.6182C56.204 11.7589 56.0727 11.918 55.9702 12.0905C55.9376 12.1435 55.91 12.1966 55.8862 12.2369C55.8862 12.2369 55.8435 12.3155 55.8022 12.4036C55.7155 12.5988 55.6414 12.7979 55.5802 13C55.5339 12.8652 55.485 12.7495 55.4411 12.6551C55.4198 12.6052 55.3746 12.515 55.3157 12.4014C55.2653 12.2954 55.2054 12.1929 55.1364 12.0947C54.9985 11.9008 54.822 11.7285 54.6148 11.5853C54.3729 11.4177 54.0943 11.2922 53.7949 11.216C53.5376 11.1489 53.2692 11.1174 53 11.1226C53.6331 11.0462 54.2197 10.798 54.6719 10.4152C55.1241 10.0325 55.4173 9.53587 55.5075 9C55.5661 9.51663 55.8316 10.0008 56.2598 10.3722C56.7263 10.7637 57.3445 10.9989 58 11.0345Z" fill="white"/>
<path d="M41 22.0372L32.4286 32L24 31.6401L38.2607 22L41 22.0372Z" fill="#252525"/>
<path d="M37 22L21.8342 31L18 30.9073L36.0502 22.0158L37 22Z" fill="#252525"/>
<path d="M63 54C62.7266 53.0345 62.0843 51.3648 60.4973 49.9485C60.1804 49.6698 59.8437 49.4121 59.4897 49.177C56.5576 47.2747 50.7191 48.2203 50 48.3426C53.5255 48.2501 55.9991 48.9444 57.3232 49.4183C58.6031 49.8768 59.3233 50.2913 59.7096 50.5381C61.0818 51.4274 62.2099 52.6143 63 54Z" fill="white"/>
<path d="M38.5377 15.5753C40.2575 15.2263 42.108 15.0867 44 15L35.5904 20.9797L27 21C29.5931 19.1456 32.9692 16.7114 38.5377 15.5753Z" fill="white"/>
<path d="M65 21.9649L51 22C51.8555 19.6866 52.7109 17.3739 53.5664 15.0622C56.6555 15.0083 60.1243 14.9833 63.8757 15.0121C64.1085 15.8884 64.3256 16.8461 64.51 17.8701C64.7515 19.2239 64.9152 20.5912 65 21.9649Z" fill="white"/>
<path d="M53 15C52.1718 17.3191 51.3429 19.639 50.5132 21.9598L35 22L43.0915 15.3278C43.7168 15.2939 44.3467 15.2675 44.9778 15.2411C47.1814 15.1469 49.8927 15.0578 53 15Z" fill="#252525"/>
</g>
<defs>
<filter id="filter0_d_1022_343" x="0" y="0" width="195" height="79" filterUnits="userSpaceOnUse" color-interpolation-filters="sRGB">
<feFlood flood-opacity="0" result="BackgroundImageFix"/>
<feColorMatrix in="SourceAlpha" type="matrix" values="0 0 0 0 0 0 0 0 0 0 0 0 0 0 0 0 0 0 127 0" result="hardAlpha"/>
<feOffset dy="4"/>
<feGaussianBlur stdDeviation="2"/>
<feComposite in2="hardAlpha" operator="out"/>
<feColorMatrix type="matrix" values="0 0 0 0 0 0 0 0 0 0 0 0 0 0 0 0 0 0 0.25 0"/>
<feBlend mode="normal" in2="BackgroundImageFix" result="effect1_dropShadow_1022_343"/>
<feBlend mode="normal" in="SourceGraphic" in2="effect1_dropShadow_1022_343" result="shape"/>
</filter>
</defs>
</svg>
