<svg width="50" height="50" viewBox="0 0 50 50" fill="none" xmlns="http://www.w3.org/2000/svg">
<path fill-rule="evenodd" clip-rule="evenodd" d="M19.4354 24L10.2823 14.847C9.02183 13.5865 9.02183 11.5428 10.2823 10.2823C11.5428 9.02183 13.5865 9.02183 14.847 10.2823L24 19.4354L33.153 10.2823C34.4135 9.02183 36.4572 9.02183 37.7177 10.2823C38.9782 11.5428 38.9782 13.5865 37.7177 14.847L28.5646 24L37.7177 33.153C38.9782 34.4135 38.9782 36.4572 37.7177 37.7177C36.4572 38.9782 34.4135 38.9782 33.153 37.7177L24 28.5646L14.847 37.7177C13.5865 38.9782 11.5428 38.9782 10.2823 37.7177C9.02183 36.4572 9.02183 34.4135 10.2823 33.153L19.4354 24Z" fill="white"/>
</svg>
